  0
SECTION
  2
HEADER
  9
$ACADVER
  1
AC1006
  9
$EXTMIN
 10
0.000000
 20
0.000000
 30
0.000000
  9
$EXTMAX
 10
300.000000
 20
300.000000
 30
0.000000
  0
ENDSEC
  0
SECTION
  2
ENTITIES
  0
POLYLINE
  8
0
 66
1
 70
1
  0
VERTEX
  8
0
 10
213.772717
 20
172.763452
 42
0.000000
  0
VERTEX
  8
0
 10
213.500000
 20
112.500000
 42
0.000000
  0
VERTEX
  8
0
 10
211.032906
 20
107.670231
 42
-0.094931
  0
VERTEX
  8
0
 10
204.723084
 20
99.566127
 42
-0.066450
  0
VERTEX
  8
0
 10
195.063032
 20
93.136672
 42
-0.056877
  0
VERTEX
  8
0
 10
182.516582
 20
88.685723
 42
-0.039681
  0
VERTEX
  8
0
 10
167.648393
 20
86.469718
 42
0.002381
  0
VERTEX
  8
0
 10
164.217063
 20
86.217420
 42
0.002107
  0
VERTEX
  8
0
 10
160.645153
 20
85.922531
 42
0.002115
  0
VERTEX
  8
0
 10
157.429711
 20
85.629717
 42
0.006448
  0
VERTEX
  8
0
 10
155.250000
 20
85.393520
 42
0.000000
  0
VERTEX
  8
0
 10
151.000000
 20
84.877454
 42
0.000000
  0
VERTEX
  8
0
 10
151.000000
 20
77.784252
 42
0.000000
  0
VERTEX
  8
0
 10
151.000000
 20
70.691051
 42
0.000000
  0
VERTEX
  8
0
 10
173.250000
 20
71.367209
 42
0.002029
  0
VERTEX
  8
0
 10
189.085635
 20
71.912767
 42
0.010562
  0
VERTEX
  8
0
 10
197.808973
 20
72.433465
 42
0.011984
  0
VERTEX
  8
0
 10
206.024706
 20
73.296893
 42
0.003105
  0
VERTEX
  8
0
 10
219.209775
 20
75.086241
 42
0.018904
  0
VERTEX
  8
0
 10
238.693831
 20
78.609587
 42
0.028312
  0
VERTEX
  8
0
 10
255.339962
 20
83.275926
 42
0.032527
  0
VERTEX
  8
0
 10
268.292337
 20
88.675178
 42
0.097881
  0
VERTEX
  8
0
 10
275.849830
 20
94.481748
 42
0.031689
  0
VERTEX
  8
0
 10
277.100753
 20
96.102974
 42
0.021422
  0
VERTEX
  8
0
 10
278.323514
 20
98.092957
 42
0.021624
  0
VERTEX
  8
0
 10
279.343581
 20
100.126702
 42
0.039678
  0
VERTEX
  8
0
 10
279.965419
 20
101.871576
 42
0.061265
  0
VERTEX
  8
0
 10
280.453606
 20
105.319444
 42
0.001626
  0
VERTEX
  8
0
 10
280.685592
 20
120.756226
 42
0.002848
  0
VERTEX
  8
0
 10
280.809118
 20
141.072701
 42
0.001112
  0
VERTEX
  8
0
 10
280.757499
 20
169.134706
 42
0.000000
  0
VERTEX
  8
0
 10
280.500000
 20
232.500000
 42
0.000000
  0
VERTEX
  8
0
 10
247.272717
 20
232.763452
 42
0.000000
  0
VERTEX
  8
0
 10
214.045434
 20
233.026905
 42
0.000000
  0
SEQEND
  0
POLYLINE
  8
0
 66
1
 70
1
  0
VERTEX
  8
0
 10
76.078947
 20
120.416667
 42
0.018894
  0
VERTEX
  8
0
 10
76.137993
 20
119.670344
 42
0.168741
  0
VERTEX
  8
0
 10
76.279315
 20
119.378580
 42
0.470617
  0
VERTEX
  8
0
 10
76.461564
 20
119.395823
 42
0.054073
  0
VERTEX
  8
0
 10
76.683114
 20
119.812500
 42
0.051402
  0
VERTEX
  8
0
 10
76.839148
 20
120.359369
 42
0.054150
  0
VERTEX
  8
0
 10
76.876576
 20
120.916927
 42
0.060344
  0
VERTEX
  8
0
 10
76.797407
 20
121.402231
 42
0.126455
  0
VERTEX
  8
0
 10
76.604167
 20
121.729167
 42
0.296942
  0
VERTEX
  8
0
 10
76.385309
 20
121.775380
 42
0.208169
  0
VERTEX
  8
0
 10
76.200665
 20
121.592839
 42
0.077125
  0
VERTEX
  8
0
 10
76.089945
 20
121.112848
 42
0.028489
  0
SEQEND
  0
POLYLINE
  8
0
 66
1
 70
1
  0
VERTEX
  8
0
 10
80.782468
 20
104.500000
 42
0.046735
  0
VERTEX
  8
0
 10
81.433771
 20
103.501924
 42
0.012788
  0
VERTEX
  8
0
 10
82.641797
 20
102.059375
 42
0.012812
  0
VERTEX
  8
0
 10
84.101999
 20
100.486746
 42
0.013029
  0
VERTEX
  8
0
 10
85.632889
 20
99.000000
 42
0.000865
  0
VERTEX
  8
0
 10
88.174641
 20
96.665215
 42
0.794641
  0
VERTEX
  8
0
 10
88.255080
 20
96.720445
 42
0.086364
  0
VERTEX
  8
0
 10
88.030306
 20
97.090280
 42
0.000399
  0
VERTEX
  8
0
 10
85.044507
 20
100.500000
 42
0.000278
  0
VERTEX
  8
0
 10
83.330512
 20
102.452003
 42
0.000400
  0
VERTEX
  8
0
 10
81.810707
 20
104.178125
 42
0.000209
  0
VERTEX
  8
0
 10
80.520694
 20
105.639670
 42
0.006396
  0
VERTEX
  8
0
 10
80.194085
 20
106.000000
 42
0.691033
  0
VERTEX
  8
0
 10
80.132676
 20
105.974922
 42
0.087103
  0
VERTEX
  8
0
 10
80.175112
 20
105.765625
 42
0.020481
  0
VERTEX
  8
0
 10
80.407894
 20
105.236950
 42
0.007262
  0
SEQEND
  0
POLYLINE
  8
0
 66
1
 70
1
  0
VERTEX
  8
0
 10
13.000000
 20
97.622445
 42
0.184603
  0
VERTEX
  8
0
 10
13.081150
 20
97.410139
 42
0.013803
  0
VERTEX
  8
0
 10
13.514062
 20
96.952641
 42
0.017649
  0
VERTEX
  8
0
 10
14.079598
 20
96.425681
 42
0.012436
  0
VERTEX
  8
0
 10
14.750000
 20
95.872445
 42
0.001576
  0
VERTEX
  8
0
 10
15.879507
 20
94.992360
 42
0.377591
  0
VERTEX
  8
0
 10
16.000000
 20
95.000000
 42
0.377591
  0
VERTEX
  8
0
 10
16.007640
 20
95.120493
 42
0.001576
  0
VERTEX
  8
0
 10
15.127555
 20
96.250000
 42
0.017685
  0
VERTEX
  8
0
 10
14.236680
 20
97.306759
 42
0.065617
  0
VERTEX
  8
0
 10
13.573889
 20
97.869516
 42
0.241985
  0
VERTEX
  8
0
 10
13.193395
 20
97.906950
 42
0.307699
  0
SEQEND
  0
POLYLINE
  8
0
 66
1
 70
1
  0
VERTEX
  8
0
 10
17.000000
 20
93.622445
 42
0.184603
  0
VERTEX
  8
0
 10
17.081150
 20
93.410139
 42
0.013803
  0
VERTEX
  8
0
 10
17.514063
 20
92.952641
 42
0.017649
  0
VERTEX
  8
0
 10
18.079598
 20
92.425681
 42
0.012436
  0
VERTEX
  8
0
 10
18.750000
 20
91.872445
 42
0.001576
  0
VERTEX
  8
0
 10
19.879507
 20
90.992360
 42
0.377591
  0
VERTEX
  8
0
 10
20.000000
 20
91.000000
 42
0.377591
  0
VERTEX
  8
0
 10
20.007640
 20
91.120493
 42
0.001576
  0
VERTEX
  8
0
 10
19.127555
 20
92.250000
 42
0.017685
  0
VERTEX
  8
0
 10
18.236680
 20
93.306759
 42
0.065617
  0
VERTEX
  8
0
 10
17.573889
 20
93.869516
 42
0.241985
  0
VERTEX
  8
0
 10
17.193395
 20
93.906950
 42
0.307699
  0
SEQEND
  0
POLYLINE
  8
0
 66
1
 70
1
  0
VERTEX
  8
0
 10
135.250000
 20
84.310674
 42
0.039571
  0
VERTEX
  8
0
 10
136.047266
 20
84.168469
 42
0.024357
  0
VERTEX
  8
0
 10
137.000000
 20
84.122029
 42
0.024357
  0
VERTEX
  8
0
 10
137.952734
 20
84.168469
 42
0.039571
  0
VERTEX
  8
0
 10
138.750000
 20
84.310674
 42
0.161593
  0
VERTEX
  8
0
 10
139.009140
 20
84.478988
 42
0.542911
  0
VERTEX
  8
0
 10
138.957813
 20
84.633659
 42
0.052887
  0
VERTEX
  8
0
 10
138.251983
 20
84.740287
 42
0.011065
  0
VERTEX
  8
0
 10
137.000000
 20
84.767997
 42
0.011065
  0
VERTEX
  8
0
 10
135.748017
 20
84.740287
 42
0.052887
  0
VERTEX
  8
0
 10
135.042187
 20
84.633659
 42
0.542911
  0
VERTEX
  8
0
 10
134.990860
 20
84.478988
 42
0.161593
  0
SEQEND
  0
POLYLINE
  8
0
 66
1
 70
1
  0
VERTEX
  8
0
 10
288.654988
 20
74.171259
 42
0.128069
  0
VERTEX
  8
0
 10
287.162717
 20
71.310557
 42
0.144061
  0
VERTEX
  8
0
 10
287.348551
 20
68.221668
 42
0.155337
  0
VERTEX
  8
0
 10
289.140702
 20
65.885868
 42
0.153216
  0
VERTEX
  8
0
 10
291.963755
 20
65.000000
 42
0.132261
  0
VERTEX
  8
0
 10
295.348318
 20
65.911230
 42
0.156702
  0
VERTEX
  8
0
 10
297.557638
 20
68.360534
 42
0.166599
  0
VERTEX
  8
0
 10
297.851739
 20
71.517584
 42
0.150613
  0
VERTEX
  8
0
 10
296.171259
 20
74.345012
 42
0.083943
  0
VERTEX
  8
0
 10
294.297769
 20
75.540768
 42
0.106321
  0
VERTEX
  8
0
 10
292.285252
 20
75.925171
 42
0.109671
  0
VERTEX
  8
0
 10
290.339845
 20
75.445835
 42
0.094072
  0
SEQEND
  0
POLYLINE
  8
0
 66
1
 70
1
  0
VERTEX
  8
0
 10
295.428571
 20
73.428571
 42
-0.128750
  0
VERTEX
  8
0
 10
296.803909
 20
71.077513
 42
-0.163622
  0
VERTEX
  8
0
 10
296.676124
 20
68.581630
 42
-0.166873
  0
VERTEX
  8
0
 10
295.074586
 20
66.704055
 42
-0.134267
  0
VERTEX
  8
0
 10
292.500000
 20
66.000000
 42
-0.088259
  0
VERTEX
  8
0
 10
290.687906
 20
66.322380
 42
-0.108744
  0
VERTEX
  8
0
 10
289.244828
 20
67.244828
 42
-0.108744
  0
VERTEX
  8
0
 10
288.322380
 20
68.687906
 42
-0.088259
  0
VERTEX
  8
0
 10
288.000000
 20
70.500000
 42
-0.134267
  0
VERTEX
  8
0
 10
288.704055
 20
73.074586
 42
-0.166873
  0
VERTEX
  8
0
 10
290.581630
 20
74.676124
 42
-0.163622
  0
VERTEX
  8
0
 10
293.077513
 20
74.803909
 42
-0.128750
  0
SEQEND
  0
POLYLINE
  8
0
 66
1
 70
1
  0
VERTEX
  8
0
 10
291.250000
 20
73.282394
 42
0.174601
  0
VERTEX
  8
0
 10
290.774434
 20
72.889407
 42
0.054828
  0
VERTEX
  8
0
 10
290.387834
 20
72.035037
 42
0.047204
  0
VERTEX
  8
0
 10
290.135409
 20
70.911733
 42
0.037242
  0
VERTEX
  8
0
 10
290.070285
 20
69.666667
 42
0.005954
  0
VERTEX
  8
0
 10
290.128062
 20
67.972976
 42
0.140352
  0
VERTEX
  8
0
 10
290.279395
 20
67.523681
 42
0.571388
  0
VERTEX
  8
0
 10
290.499508
 20
67.539381
 42
0.022131
  0
VERTEX
  8
0
 10
290.905509
 20
68.455648
 42
-0.011596
  0
VERTEX
  8
0
 10
291.415216
 20
69.674657
 42
-0.277212
  0
VERTEX
  8
0
 10
291.706928
 20
69.878854
 42
-0.277816
  0
VERTEX
  8
0
 10
292.023766
 20
69.717079
 42
-0.011636
  0
VERTEX
  8
0
 10
292.694796
 20
68.580885
 42
0.017432
  0
VERTEX
  8
0
 10
293.321187
 20
67.547809
 42
0.384369
  0
VERTEX
  8
0
 10
293.634975
 20
67.465358
 42
0.221334
  0
VERTEX
  8
0
 10
293.891797
 20
67.797511
 42
0.008415
  0
VERTEX
  8
0
 10
294.219687
 20
69.368887
 42
0.076880
  0
VERTEX
  8
0
 10
294.285511
 20
71.226206
 42
0.133560
  0
VERTEX
  8
0
 10
293.712014
 20
72.647263
 42
0.172994
  0
VERTEX
  8
0
 10
292.626402
 20
73.357080
 42
0.146373
  0
SEQEND
  0
ENDSEC
  0
EOF
